<svg xmlns="http://www.w3.org/2000/svg" xmlns:xlink="http://www.w3.org/1999/xlink" preserveAspectRatio="xMidYMid meet" version="1.0" viewBox="518.4 630.0 963.2 740.1" zoomAndPan="magnify" style="fill: rgb(0, 0, 0);" original_string_length="1924" width="187.2067888532482px" height="139.54758706225735px"><g><g id="__id12_sgmqek7cv"><path d="M 963.972656 1157.628906 C 963.949219 1157.761719 963.972656 1157.910156 963.996094 1158.039062 L 963.972656 1158.039062 L 963.972656 1157.628906" style="fill: rgb(0, 191, 99);"/></g><g id="__id13_sgmqek7cv"><path d="M 1333.128906 1095.859375 C 1333.128906 1153.28125 1286.589844 1199.820312 1229.171875 1199.820312 C 1171.761719 1199.820312 1125.21875 1153.28125 1125.21875 1095.859375 C 1125.21875 1038.449219 1171.761719 991.910156 1229.171875 991.910156 C 1286.589844 991.910156 1333.128906 1038.449219 1333.128906 1095.859375" style="fill: rgb(0, 191, 99);"/></g><g id="__id14_sgmqek7cv"><path d="M 1407.328125 1110.109375 C 1407.328125 1212.488281 1324.039062 1295.769531 1221.671875 1295.769531 C 1127.429688 1295.769531 1049.371094 1225.179688 1037.570312 1134.101562 C 1037.378906 1132.648438 1037.121094 1132.628906 1037.121094 1134.078125 C 1024.988281 1001.941406 913.570312 898.121094 778.335938 898.121094 C 635.011719 898.121094 518.410156 1014.71875 518.410156 1158.039062 L 592.671875 1158.039062 C 592.671875 1055.660156 675.953125 972.378906 778.335938 972.378906 C 872.566406 972.378906 950.632812 1042.96875 962.433594 1134.050781 C 962.621094 1135.5 962.882812 1135.519531 962.882812 1134.078125 C 975.007812 1266.210938 1086.429688 1370.03125 1221.671875 1370.03125 C 1364.988281 1370.03125 1481.589844 1253.429688 1481.589844 1110.109375 Z M 905.574219 733.929688 C 905.574219 791.339844 859.027344 837.890625 801.613281 837.890625 C 744.199219 837.890625 697.65625 791.339844 697.65625 733.929688 C 697.65625 676.511719 744.199219 629.96875 801.613281 629.96875 C 859.027344 629.96875 905.574219 676.511719 905.574219 733.929688" style="fill: rgb(0, 74, 173);"/></g></g></svg>